<svg xmlns="http://www.w3.org/2000/svg" viewBox="0 0 161.67 161.37"><defs><style>.cls-1{fill:#f5f5f2;}.cls-2{fill:#fff;}</style></defs><title>logo2</title><g id="Layer_2" data-name="Layer 2"><g id="Layer_1-2" data-name="Layer 1"><path d="M0,84.43V77c.07-.54.16-1.09.22-1.63.27-2.5.4-5,.82-7.5C4,50.3,11.65,35.12,24.57,22.84,44.24,4.13,67.74-3,94.48,1.15A76.89,76.89,0,0,1,139,24.61c18.07,18.87,25.13,41.54,21.91,67.27a75.94,75.94,0,0,1-24.11,47c-20.28,19-44.36,26-71.59,20.9C45.05,156,28.75,145.51,16.3,129.2A78.21,78.21,0,0,1,.69,90.85C.43,88.72.23,86.57,0,84.43ZM130,66.71,96.81,93a1.19,1.19,0,0,0,.91.24c2.83-.49,4.59.43,5.79,3a8.75,8.75,0,0,1,.07,7.88,59,59,0,0,1-5.36,8.59c-6,7.91-10.37,16.45-11.08,26.51a13.42,13.42,0,0,0,3.25,10.44,2.45,2.45,0,0,0,2.5.87c17.65-3.23,32.31-11.65,43.48-25.71,13.4-16.89,18.16-36.16,14.3-57.32-3.37-18.47-13-33.25-28.15-44.31A69.15,69.15,0,0,0,83.9,9.84a1.4,1.4,0,0,0-1.56.91c-1.61,3.3-3.33,6.54-4.94,9.83C71.64,32.35,65.85,44.1,60.22,55.93a43,43,0,0,0-4,12.7c-.26,1.88.5,2.84,2.4,2.84a11.34,11.34,0,0,0,3.08-.35c4.62-1.36,9.22-2.82,13.83-4.23,3.65-1.11,7.27-2.39,11.17-2.41,2.74,0,4.69,1.64,3.28,4.86-3.25,7.4-6.41,14.85-9.61,22.28-.43,1-.85,2-1.28,3a1.26,1.26,0,0,0,.86-.28q5.11-4,10.23-8.09C98,80,105.94,73.71,113.87,67.48a3.87,3.87,0,0,1,2.16-.74c3-.08,6,0,9,0ZM68.53,11.05l-.29-.28c-24.16,5.16-42,18.59-52.3,41.28A70,70,0,0,0,27.14,127c14.57,16.65,33.16,24.58,55.22,24.49a1.1,1.1,0,0,0-.36-.63,13.52,13.52,0,0,1-4.3-7.31A25.63,25.63,0,0,1,78,131.9c1.5-6.77,4.77-12.7,8.58-18.42a74.79,74.79,0,0,0,4.85-8.36A11.12,11.12,0,0,0,92.13,96a4.48,4.48,0,0,0-4.57-3.18c-3.38,0-6.21,1.54-9,3.17a1.19,1.19,0,0,0-.39.57q-6.68,15.27-13.3,30.56a1.42,1.42,0,0,1-1.55,1.07c-3.36,0-6.71,0-10.07,0-.37,0-.74-.05-1.25-.09.35-.85.61-1.56.93-2.24,4.42-9.5,8.9-19,13.24-28.5,2.63-5.76,5.09-11.6,7.53-17.45.89-2.13.34-2.86-2-2.8a31.13,31.13,0,0,0-5.45.59c-6.14,1.21-12.24,2.64-18.4,3.75a26.86,26.86,0,0,1-7,.18c-1.9-.17-2.42-1.1-2.27-3A15.26,15.26,0,0,1,39,76a103.88,103.88,0,0,1,7-18.4c6.5-13.7,13.18-27.32,19.78-41Z"/><path class="cls-1" d="M130,66.71h-5c-3,0-6,0-9,0a3.87,3.87,0,0,0-2.16.74C105.94,73.71,98,80,90.13,86.27Q85,90.34,79.9,94.36a1.26,1.26,0,0,1-.86.28c.43-1,.85-2,1.28-3,3.2-7.43,6.36-14.88,9.61-22.28,1.41-3.22-.54-4.88-3.28-4.86-3.9,0-7.52,1.3-11.17,2.41-4.61,1.41-9.21,2.87-13.83,4.23a11.34,11.34,0,0,1-3.08.35c-1.9,0-2.66-1-2.4-2.84a43,43,0,0,1,4-12.7C65.85,44.1,71.64,32.35,77.4,20.58c1.61-3.29,3.33-6.53,4.94-9.83a1.4,1.4,0,0,1,1.56-.91,69.15,69.15,0,0,1,38.62,13.4c15.14,11.06,24.78,25.84,28.15,44.31,3.86,21.16-.9,40.43-14.3,57.32-11.17,14.06-25.83,22.48-43.48,25.71a2.45,2.45,0,0,1-2.5-.87,13.42,13.42,0,0,1-3.25-10.44c.71-10.06,5.11-18.6,11.08-26.51a59,59,0,0,0,5.36-8.59,8.75,8.75,0,0,0-.07-7.88c-1.2-2.58-3-3.5-5.79-3a1.19,1.19,0,0,1-.91-.24Z"/><path class="cls-2" d="M68.53,11.05,65.82,16.6c-6.6,13.66-13.28,27.28-19.78,41A103.88,103.88,0,0,0,39,76a15.26,15.26,0,0,0-.45,2.59c-.15,1.88.37,2.81,2.27,3a26.86,26.86,0,0,0,7-.18c6.16-1.11,12.26-2.54,18.4-3.75A31.13,31.13,0,0,1,71.68,77c2.35-.06,2.9.67,2,2.8-2.44,5.85-4.9,11.69-7.53,17.45-4.34,9.53-8.82,19-13.24,28.5-.32.68-.58,1.39-.93,2.24.51,0,.88.09,1.25.09,3.36,0,6.71,0,10.07,0a1.42,1.42,0,0,0,1.55-1.07q6.6-15.3,13.3-30.56a1.19,1.19,0,0,1,.39-.57c2.8-1.63,5.63-3.2,9-3.17A4.48,4.48,0,0,1,92.13,96a11.12,11.12,0,0,1-.66,9.17,74.79,74.79,0,0,1-4.85,8.36c-3.81,5.72-7.08,11.65-8.58,18.42a25.63,25.63,0,0,0-.34,11.62,13.52,13.52,0,0,0,4.3,7.31,1.1,1.1,0,0,1,.36.63c-22.06.09-40.65-7.84-55.22-24.49a70,70,0,0,1-11.2-74.92c10.3-22.69,28.14-36.12,52.3-41.28Z"/></g></g></svg>